<svg width="264" height="281" viewBox="0 0 264 281" fill="none" xmlns="http://www.w3.org/2000/svg">
<path fill-rule="evenodd" clip-rule="evenodd" d="M132 36.7804C101.072 36.7804 76 61.8525 76 92.7804V98.9463C70.3246 99.8985 66 104.834 66 110.78V124.78C66 130.833 70.4803 135.838 76.3051 136.662C78.3722 156.467 90.7626 173.203 108 181.391V199.78H104C64.2355 199.78 32 232.016 32 271.78V280.78H232V271.78C232 232.016 199.764 199.78 160 199.78H156V181.391C173.237 173.203 185.628 156.467 187.695 136.662C193.52 135.838 198 130.833 198 124.78V110.78C198 104.834 193.675 99.8985 188 98.9463V92.7804C188 61.8525 162.928 36.7804 132 36.7804Z" fill="#D0C6AC"/>
<mask id="mask0" mask-type="alpha" maskUnits="userSpaceOnUse" x="32" y="36" width="200" height="245">
<path fill-rule="evenodd" clip-rule="evenodd" d="M132 36.7804C101.072 36.7804 76 61.8525 76 92.7804V98.9463C70.3246 99.8985 66 104.834 66 110.78V124.78C66 130.833 70.4803 135.838 76.3051 136.662C78.3722 156.467 90.7626 173.203 108 181.391V199.78H104C64.2355 199.78 32 232.016 32 271.78V280.78H232V271.78C232 232.016 199.764 199.78 160 199.78H156V181.391C173.237 173.203 185.628 156.467 187.695 136.662C193.52 135.838 198 130.833 198 124.78V110.78C198 104.834 193.675 99.8985 188 98.9463V92.7804C188 61.8525 162.928 36.7804 132 36.7804Z" fill="white"/>
</mask>
<g mask="url(#mask0)">
<rect y="36.7804" width="264" height="244" fill="#FFDBB4"/>
<path fill-rule="evenodd" clip-rule="evenodd" d="M76 130.78V138.78C76 169.708 101.072 194.78 132 194.78C162.928 194.78 188 169.708 188 138.78V130.78C188 161.708 162.928 186.78 132 186.78C101.072 186.78 76 161.708 76 130.78Z" fill="black" fill-opacity="0.1"/>
</g>
<path fill-rule="evenodd" clip-rule="evenodd" d="M132.5 224.78C151.002 224.78 166 215.155 166 203.28C166 202.182 165.872 201.103 165.624 200.049C202.76 202.918 232 233.96 232 271.832V280.78H32V271.832C32 233.615 61.7752 202.353 99.3929 199.977C99.1342 201.054 99 202.157 99 203.28C99 215.155 113.998 224.78 132.5 224.78Z" fill="#E6E6E6"/>
<mask id="mask1" mask-type="alpha" maskUnits="userSpaceOnUse" x="32" y="199" width="200" height="82">
<path fill-rule="evenodd" clip-rule="evenodd" d="M132.5 224.78C151.002 224.78 166 215.155 166 203.28C166 202.182 165.872 201.103 165.624 200.049C202.76 202.918 232 233.96 232 271.832V280.78H32V271.832C32 233.615 61.7752 202.353 99.3929 199.977C99.1342 201.054 99 202.157 99 203.28C99 215.155 113.998 224.78 132.5 224.78Z" fill="white"/>
</mask>
<g mask="url(#mask1)">
<rect y="170.78" width="264" height="110" fill="#FF5C5C"/>
<path fill-rule="evenodd" clip-rule="evenodd" d="M142.282 248.709C141.984 251.486 136.589 252.983 134.61 251.157C133.698 250.315 133.683 248.583 133.482 247.456C133.101 245.322 132.826 243.198 132.731 241.032C132.673 239.708 132.325 238.648 133.775 238.451C134.658 238.331 135.568 238.918 136.29 239.383C138.737 240.956 142.62 245.522 142.282 248.709M129.881 242.856C130.166 245.682 131.201 250.595 128.946 252.961C126.93 255.076 122.786 252.979 122.163 250.489C121.39 247.399 124.438 243.708 126.308 241.619C126.882 240.977 128.152 239.206 129.144 239.799C129.526 240.027 129.837 242.411 129.881 242.856M131.321 253.887C131.968 252.364 138.234 256.905 135.274 259.065C134.792 259.418 131.115 260.532 130.41 260.008C128.925 258.904 130.841 255.043 131.321 253.887M150.325 246.307C149.882 230.832 130.065 226.467 119.476 235.285C115.427 238.656 113.113 242.784 113.007 248.063C112.917 252.535 113.626 256.752 117.041 259.827C118.522 261.16 119.5 261.976 120.286 263.797C121.11 265.704 121.485 268.133 123.028 269.63C123.879 270.456 125.118 271.122 126.294 270.59C128.456 269.611 127.764 266.612 128.419 264.941C130.456 269.91 135.63 271.495 136.569 265.19C137.6 267.009 140.295 269.391 142.268 267.4C143.081 266.581 143.203 265.251 143.341 264.173C143.586 262.261 143.16 261.51 144.696 260.198C148.735 256.749 150.469 251.527 150.325 246.307" fill="white"/>
</g>
<path fill-rule="evenodd" clip-rule="evenodd" d="M118 149.78C118 157.512 124.268 163.78 132 163.78V163.78C139.732 163.78 146 157.512 146 149.78" fill="black" fill-opacity="0.7"/>
<path fill-rule="evenodd" clip-rule="evenodd" d="M120 130.78C120 135.199 125.373 138.78 132 138.78V138.78C138.627 138.78 144 135.199 144 130.78" fill="black" fill-opacity="0.16"/>
<rect width="112" height="44" transform="translate(76 90.7804)" fill="#D08B5B"/>
<circle cx="106" cy="112.78" r="6" fill="black" fill-opacity="0.6"/>
<path fill-rule="evenodd" clip-rule="evenodd" d="M146.61 115.735C148.187 111.817 152.149 108.885 156.971 108.548C161.775 108.212 166.094 110.546 168.209 114.185C168.837 115.266 168.119 116.236 167.282 115.613C164.69 113.682 161.126 112.612 157.274 112.881C153.543 113.142 150.253 114.61 147.962 116.768C147.124 117.557 146.148 116.882 146.61 115.735Z" fill="black" fill-opacity="0.6"/>
<path d="M91.6302 99.939C95.5451 94.4303 106.278 91.3412 115.523 93.6116C116.596 93.875 117.679 93.219 117.942 92.1463C118.206 91.0736 117.55 89.9904 116.477 89.727C105.74 87.0904 93.3121 90.6674 88.3697 97.6218C87.7299 98.5222 87.941 99.7708 88.8414 100.411C89.7418 101.051 90.9904 100.839 91.6302 99.939Z" fill="black" fill-opacity="0.6"/>
<path d="M172.37 99.939C168.455 94.4303 157.722 91.3412 148.477 93.6116C147.405 93.875 146.321 93.219 146.058 92.1463C145.795 91.0736 146.451 89.9904 147.523 89.727C158.26 87.0904 170.688 90.6674 175.631 97.6218C176.27 98.5222 176.059 99.7708 175.159 100.411C174.258 101.051 173.01 100.839 172.37 99.939Z" fill="black" fill-opacity="0.6"/>
<mask id="mask2" mask-type="alpha" maskUnits="userSpaceOnUse" x="0" y="0" width="264" height="281">
<rect y="0.780396" width="264" height="280" fill="white"/>
</mask>
<g mask="url(#mask2)">
<path fill-rule="evenodd" clip-rule="evenodd" d="M66 113.78C76.859 91.0785 100.67 82.1837 121.44 74.4248C134.76 69.4491 146.829 64.9406 153.43 57.5575C155.663 59.5844 158.192 61.6149 160.854 63.7511L160.854 63.7511C171.063 71.9461 183.212 81.6976 188 98.7804V98.9463C192.989 99.7833 196.934 103.699 197.815 108.672V86.8213C197.815 85.5294 197.762 84.2496 197.657 82.9839C202.2 65.9777 194.565 45.1954 185 35.7804C175.519 26.9625 162.698 23.4614 154.047 27.3025C142.442 9.76207 108.905 14.0207 89 28.7803C75.7797 38.588 64.2128 54.5011 61.155 74.5313C60.3994 77.8387 60 81.2843 60 84.8266V170.78V173.321C59.8081 204.836 52.6057 255.818 39 263.78C101.358 280.578 110.93 225.635 108 181.78V181.391C90.4692 173.063 77.9518 155.895 76.2086 135.648C70.4309 134.783 66 129.799 66 123.78V113.78ZM156 181.391C173.531 173.063 186.048 155.895 187.791 135.648C192.879 134.886 196.922 130.931 197.815 125.888V127.251C197.815 143.079 201.573 158.681 208.778 172.774L235.727 225.481C242.952 239.613 240.403 255.222 231.79 266.243C228.962 229.066 197.901 199.78 160 199.78H156V181.391Z" fill="#272C2E"/>
<mask id="mask3" mask-type="alpha" maskUnits="userSpaceOnUse" x="39" y="15" width="201" height="252">
<path fill-rule="evenodd" clip-rule="evenodd" d="M66 113.78C76.859 91.0785 100.67 82.1837 121.44 74.4248C134.76 69.4491 146.829 64.9406 153.43 57.5575C155.663 59.5844 158.192 61.6149 160.854 63.7511L160.854 63.7511C171.063 71.9461 183.212 81.6976 188 98.7804V98.9463C192.989 99.7833 196.934 103.699 197.815 108.672V86.8213C197.815 85.5294 197.762 84.2496 197.657 82.9839C202.2 65.9777 194.565 45.1954 185 35.7804C175.519 26.9625 162.698 23.4614 154.047 27.3025C142.442 9.76207 108.905 14.0207 89 28.7803C75.7797 38.588 64.2128 54.5011 61.155 74.5313C60.3994 77.8387 60 81.2843 60 84.8266V170.78V173.321C59.8081 204.836 52.6057 255.818 39 263.78C101.358 280.578 110.93 225.635 108 181.78V181.391C90.4692 173.063 77.9518 155.895 76.2086 135.648C70.4309 134.783 66 129.799 66 123.78V113.78ZM156 181.391C173.531 173.063 186.048 155.895 187.791 135.648C192.879 134.886 196.922 130.931 197.815 125.888V127.251C197.815 143.079 201.573 158.681 208.778 172.774L235.727 225.481C242.952 239.613 240.403 255.222 231.79 266.243C228.962 229.066 197.901 199.78 160 199.78H156V181.391Z" fill="white"/>
</mask>
<g mask="url(#mask3)">
<rect y="0.780396" width="264" height="280" fill="#4A312C"/>
</g>
<path fill-rule="evenodd" clip-rule="evenodd" d="M121.44 74.4248C100.67 82.1837 76.859 91.0785 66 113.78C76.859 94.0791 100.67 86.36 121.44 79.6266C134.76 75.3086 146.829 71.396 153.43 64.9887C156.081 67.077 159.149 69.0489 162.36 71.1123C172.204 77.4378 183.385 84.6224 187.963 98.6491C183.15 81.6476 171.037 71.9251 160.854 63.7511C158.192 61.6149 155.663 59.5845 153.43 57.5575C146.829 64.9406 134.76 69.4492 121.44 74.4248Z" fill="black" fill-opacity="0.16"/>
<g filter="url(#filter0_d)">
<path d="M132 98.8915C120.963 98.8915 119.371 89.807 96.6706 88.5211C73.9855 87.4972 66.8152 94.2299 66.7765 98.8915C66.8132 103.185 65.6477 114.342 80.3647 127.41C95.1368 142.922 110.27 137.662 115.694 132.595C121.135 130.254 127.34 109.24 132 109.262C136.66 109.284 142.865 130.254 148.306 132.595C153.73 137.662 168.863 142.922 183.635 127.41C198.352 114.342 197.187 103.185 197.224 98.8915C197.185 94.2299 190.014 87.4972 167.329 88.5211C144.629 89.807 143.037 98.8915 132 98.8915Z" fill="#F4F4F4"/>
<path d="M121.129 109.262C121.51 101.604 108.216 93.4228 93.953 93.7063C79.6974 94.0049 77.8418 103.159 77.6471 106.669C77.2983 114.802 86.0145 133.084 102.106 132.595C118.197 132.086 120.909 114.315 121.129 109.262Z" fill="#2F383B"/>
<path d="M142.871 109.262C142.49 101.604 155.784 93.4228 170.047 93.7063C184.303 94.0049 186.158 103.159 186.353 106.669C186.702 114.802 177.986 133.084 161.894 132.595C145.803 132.086 143.091 114.315 142.871 109.262Z" fill="#2F383B"/>
</g>
</g>
<defs>
<filter id="filter0_d" x="66.7673" y="88.4167" width="130.465" height="51.3032" filterUnits="userSpaceOnUse" color-interpolation-filters="sRGB">
<feFlood flood-opacity="0" result="BackgroundImageFix"/>
<feColorMatrix in="SourceAlpha" type="matrix" values="0 0 0 0 0 0 0 0 0 0 0 0 0 0 0 0 0 0 127 0"/>
<feOffset dy="2"/>
<feColorMatrix type="matrix" values="0 0 0 0 0 0 0 0 0 0 0 0 0 0 0 0 0 0 0.16 0"/>
<feBlend mode="normal" in2="BackgroundImageFix" result="effect1_dropShadow"/>
<feBlend mode="normal" in="SourceGraphic" in2="effect1_dropShadow" result="shape"/>
</filter>
</defs>
</svg>
