<svg width="264" height="281" viewBox="0 0 264 281" fill="none" xmlns="http://www.w3.org/2000/svg">
<path fill-rule="evenodd" clip-rule="evenodd" d="M132 36.8902C101.072 36.8902 76 61.9623 76 92.8902V99.0561C70.3246 100.008 66 104.944 66 110.89V124.89C66 130.942 70.4803 135.948 76.3051 136.771C78.3722 156.577 90.7626 173.313 108 181.501V199.89H104C64.2355 199.89 32 232.126 32 271.89V280.89H232V271.89C232 232.126 199.764 199.89 160 199.89H156V181.501C173.237 173.313 185.628 156.577 187.695 136.771C193.52 135.948 198 130.942 198 124.89V110.89C198 104.944 193.675 100.008 188 99.0561V92.8902C188 61.9623 162.928 36.8902 132 36.8902Z" fill="#D0C6AC"/>
<mask id="mask0" mask-type="alpha" maskUnits="userSpaceOnUse" x="32" y="36" width="200" height="245">
<path fill-rule="evenodd" clip-rule="evenodd" d="M132 36.8902C101.072 36.8902 76 61.9623 76 92.8902V99.0561C70.3246 100.008 66 104.944 66 110.89V124.89C66 130.942 70.4803 135.948 76.3051 136.771C78.3722 156.577 90.7626 173.313 108 181.501V199.89H104C64.2355 199.89 32 232.126 32 271.89V280.89H232V271.89C232 232.126 199.764 199.89 160 199.89H156V181.501C173.237 173.313 185.628 156.577 187.695 136.771C193.52 135.948 198 130.942 198 124.89V110.89C198 104.944 193.675 100.008 188 99.0561V92.8902C188 61.9623 162.928 36.8902 132 36.8902Z" fill="white"/>
</mask>
<g mask="url(#mask0)">
<rect y="36.8902" width="264" height="244" fill="#AE5D29"/>
<path fill-rule="evenodd" clip-rule="evenodd" d="M76 130.89V138.89C76 169.818 101.072 194.89 132 194.89C162.928 194.89 188 169.818 188 138.89V130.89C188 161.818 162.928 186.89 132 186.89C101.072 186.89 76 161.818 76 130.89Z" fill="black" fill-opacity="0.1"/>
</g>
<path fill-rule="evenodd" clip-rule="evenodd" d="M108 185.585C92.4839 189.27 80.8951 196.418 77.2277 205.032C50.7207 215.656 32 241.586 32 271.89V280.89H232V271.89C232 241.586 213.279 215.656 186.772 205.032C183.105 196.418 171.516 189.27 156 185.585V202.89C156 216.145 145.255 226.89 132 226.89C118.745 226.89 108 216.145 108 202.89V185.585Z" fill="#B7C1DB"/>
<mask id="mask1" mask-type="alpha" maskUnits="userSpaceOnUse" x="32" y="185" width="200" height="96">
<path fill-rule="evenodd" clip-rule="evenodd" d="M108 185.585C92.4839 189.27 80.8951 196.418 77.2277 205.032C50.7207 215.656 32 241.586 32 271.89V280.89H232V271.89C232 241.586 213.279 215.656 186.772 205.032C183.105 196.418 171.516 189.27 156 185.585V202.89C156 216.145 145.255 226.89 132 226.89C118.745 226.89 108 216.145 108 202.89V185.585Z" fill="white"/>
</mask>
<g mask="url(#mask1)">
<rect y="170.89" width="264" height="110" fill="#65C9FF"/>
<path fill-rule="evenodd" clip-rule="evenodd" d="M102 234.227C99.5284 233.385 97.1884 232.442 95 231.41V280.89H102V234.227ZM162 234.227C164.472 233.385 166.812 232.442 169 231.41V269.39C169 271.323 167.433 272.89 165.5 272.89C163.567 272.89 162 271.323 162 269.39V234.227Z" fill="#F4F4F4"/>
<path fill-rule="evenodd" clip-rule="evenodd" d="M132 238.89C162.928 238.89 188 225.459 188 208.89C188 199.027 179.115 190.276 165.4 184.808C185.194 189.831 198.5 199.183 198.5 209.89C198.5 225.906 168.727 238.89 132 238.89ZM98.6004 184.808C84.8847 190.276 76 199.027 76 208.89C76 225.459 101.072 238.89 132 238.89C95.2731 238.89 65.5 225.906 65.5 209.89C65.5 199.183 78.806 189.831 98.6004 184.808Z" fill="black" fill-opacity="0.16"/>
</g>
<rect width="108" height="44" transform="translate(78 134.89)" fill="#D08B5B"/>
<path d="M118 150.89C118 156.262 124.158 159.89 132 159.89C139.842 159.89 146 156.262 146 150.89C146 149.786 145.05 148.89 144 148.89C142.707 148.89 142.13 149.795 142 150.89C140.758 153.828 137.683 155.607 132 155.89C126.317 155.607 123.242 153.828 122 150.89C121.87 149.795 121.293 148.89 120 148.89C118.95 148.89 118 149.786 118 150.89Z" fill="black" fill-opacity="0.6"/>
<path fill-rule="evenodd" clip-rule="evenodd" d="M120 130.89C120 135.308 125.373 138.89 132 138.89V138.89C138.627 138.89 144 135.308 144 130.89" fill="black" fill-opacity="0.16"/>
<rect width="112" height="44" transform="translate(76 90.8902)" fill="#D08B5B"/>
<path fill-rule="evenodd" clip-rule="evenodd" d="M92.1602 118.443C94.0067 122.242 98.1644 124.89 102.998 124.89C107.814 124.89 111.959 122.26 113.815 118.483C114.367 117.361 113.582 116.443 112.791 117.123C110.34 119.23 106.859 120.546 102.998 120.546C99.2572 120.546 95.8738 119.311 93.4375 117.319C92.5468 116.59 91.6201 117.332 92.1602 118.443Z" fill="black" fill-opacity="0.6"/>
<path fill-rule="evenodd" clip-rule="evenodd" d="M150.16 118.443C152.007 122.242 156.164 124.89 160.998 124.89C165.814 124.89 169.959 122.26 171.815 118.483C172.367 117.361 171.582 116.443 170.791 117.123C168.34 119.23 164.859 120.546 160.998 120.546C157.257 120.546 153.874 119.311 151.438 117.319C150.547 116.59 149.62 117.332 150.16 118.443Z" fill="black" fill-opacity="0.6"/>
<path d="M91.6302 100.049C95.5451 94.5401 106.278 91.451 115.523 93.7214C116.596 93.9848 117.679 93.3288 117.942 92.2561C118.206 91.1834 117.55 90.1002 116.477 89.8368C105.74 87.2002 93.3121 90.7772 88.3697 97.7316C87.7299 98.632 87.941 99.8806 88.8414 100.52C89.7418 101.16 90.9904 100.949 91.6302 100.049Z" fill="black" fill-opacity="0.6"/>
<path d="M172.37 100.049C168.455 94.5401 157.722 91.451 148.477 93.7214C147.405 93.9848 146.321 93.3288 146.058 92.2561C145.795 91.1834 146.451 90.1002 147.523 89.8368C158.26 87.2002 170.688 90.7772 175.631 97.7316C176.27 98.632 176.059 99.8806 175.159 100.52C174.259 101.16 173.01 100.949 172.37 100.049Z" fill="black" fill-opacity="0.6"/>
<mask id="mask2" mask-type="alpha" maskUnits="userSpaceOnUse" x="0" y="0" width="264" height="281">
<rect y="0.890198" width="264" height="280" fill="white"/>
</mask>
<g mask="url(#mask2)">
<path fill-rule="evenodd" clip-rule="evenodd" d="M249 71.3902C249 72.1895 248.967 72.981 248.903 73.7637C255.882 83.3394 260 95.1339 260 107.89C260 115.047 258.704 121.902 256.333 128.231C256.77 130.215 257 132.276 257 134.39C257 144.178 252.066 152.814 244.549 157.945C235.837 175.682 217.594 187.89 196.5 187.89C194.537 187.89 192.598 187.784 190.69 187.578C184.384 192.771 176.306 195.89 167.5 195.89C163.482 195.89 159.616 195.241 156 194.042V181.501C173.531 173.173 186.048 156.005 187.791 135.757C193.569 134.893 198 129.909 198 123.89V110.89C198 104.944 193.675 100.008 188 99.0561V92.8902C188 87.4488 187.224 82.1886 185.776 77.2144L187.153 90.0849L175.813 66.0848L130.677 46.5609L100.563 57.1186L79.0648 77.3096L79.0203 74.7006C77.0627 80.4038 76 86.5229 76 92.8902V99.0561C70.3246 100.008 66 104.944 66 110.89V123.89C66 129.909 70.4309 134.893 76.2086 135.757C77.9518 156.005 90.4692 173.173 108 181.501V192.445C103.295 194.655 98.0419 195.89 92.5 195.89C83.6937 195.89 75.6157 192.771 69.3104 187.578C67.4019 187.784 65.4633 187.89 63.5 187.89C42.4056 187.89 24.1626 175.682 15.4511 157.945C7.93428 152.814 3 144.178 3 134.39C3 132.276 3.2303 130.215 3.66717 128.231C1.29639 121.902 0 115.047 0 107.89C0 95.1339 4.11812 83.3394 11.0974 73.7637C11.0329 72.981 11 72.1895 11 71.3902C11 60.0927 17.5735 50.3305 27.1043 45.7198C35.5368 27.5919 53.5577 14.8261 74.6501 13.9395C79.7819 8.95751 86.7827 5.8902 94.5 5.8902C96.827 5.8902 99.0888 6.16907 101.254 6.69522C110.776 2.9482 121.148 0.890198 132 0.890198C142.346 0.890198 152.255 2.76063 161.408 6.1818C162.744 5.98964 164.11 5.8902 165.5 5.8902C173.217 5.8902 180.218 8.95751 185.35 13.9395C206.442 14.8261 224.463 27.5919 232.896 45.7198C242.427 50.3305 249 60.0927 249 71.3902Z" fill="#314756"/>
<mask id="mask3" mask-type="alpha" maskUnits="userSpaceOnUse" x="0" y="0" width="260" height="196">
<path fill-rule="evenodd" clip-rule="evenodd" d="M249 71.3902C249 72.1895 248.967 72.981 248.903 73.7637C255.882 83.3394 260 95.1339 260 107.89C260 115.047 258.704 121.902 256.333 128.231C256.77 130.215 257 132.276 257 134.39C257 144.178 252.066 152.814 244.549 157.945C235.837 175.682 217.594 187.89 196.5 187.89C194.537 187.89 192.598 187.784 190.69 187.578C184.384 192.771 176.306 195.89 167.5 195.89C163.482 195.89 159.616 195.241 156 194.042V181.501C173.531 173.173 186.048 156.005 187.791 135.757C193.569 134.893 198 129.909 198 123.89V110.89C198 104.944 193.675 100.008 188 99.0561V92.8902C188 87.4488 187.224 82.1886 185.776 77.2144L187.153 90.0849L175.813 66.0848L130.677 46.5609L100.563 57.1186L79.0648 77.3096L79.0203 74.7006C77.0627 80.4038 76 86.5229 76 92.8902V99.0561C70.3246 100.008 66 104.944 66 110.89V123.89C66 129.909 70.4309 134.893 76.2086 135.757C77.9518 156.005 90.4692 173.173 108 181.501V192.445C103.295 194.655 98.0419 195.89 92.5 195.89C83.6937 195.89 75.6157 192.771 69.3104 187.578C67.4019 187.784 65.4633 187.89 63.5 187.89C42.4056 187.89 24.1626 175.682 15.4511 157.945C7.93428 152.814 3 144.178 3 134.39C3 132.276 3.2303 130.215 3.66717 128.231C1.29639 121.902 0 115.047 0 107.89C0 95.1339 4.11812 83.3394 11.0974 73.7637C11.0329 72.981 11 72.1895 11 71.3902C11 60.0927 17.5735 50.3305 27.1043 45.7198C35.5368 27.5919 53.5577 14.8261 74.6501 13.9395C79.7819 8.95751 86.7827 5.8902 94.5 5.8902C96.827 5.8902 99.0888 6.16907 101.254 6.69522C110.776 2.9482 121.148 0.890198 132 0.890198C142.346 0.890198 152.255 2.76063 161.408 6.1818C162.744 5.98964 164.11 5.8902 165.5 5.8902C173.217 5.8902 180.218 8.95751 185.35 13.9395C206.442 14.8261 224.463 27.5919 232.896 45.7198C242.427 50.3305 249 60.0927 249 71.3902Z" fill="white"/>
</mask>
<g mask="url(#mask3)">
<rect y="0.890198" width="264" height="280" fill="#2C1B18"/>
</g>
<path fill-rule="evenodd" clip-rule="evenodd" d="M187.369 99.8652C187.784 97.3134 188 94.7011 188 92.0424C188 63.2395 162.704 39.8902 131.5 39.8902C100.296 39.8902 75 63.2395 75 92.0424C75 94.7011 75.2155 97.3134 75.6314 99.8652C79.7204 74.7734 103.176 55.5358 131.5 55.5358C159.824 55.5358 183.28 74.7734 187.369 99.8652Z" fill="#92D9FF"/>
<g filter="url(#filter0_d)">
<path fill-rule="evenodd" clip-rule="evenodd" d="M101 136.89C87.7452 136.89 77 126.145 77 112.89C77 110.455 77.3626 108.105 78.0369 105.89H71.5C70.1193 105.89 69 104.771 69 103.39C69 102.009 70.1193 100.89 71.5 100.89H79.5C79.7285 100.89 79.9498 100.921 80.1601 100.978C84.2971 93.7561 92.0803 88.8902 101 88.8902C110.352 88.8902 118.455 94.2394 122.416 102.045C124.493 98.9295 127.949 96.8902 131.862 96.8902C135.875 96.8902 139.407 99.0343 141.465 102.284C145.38 94.3489 153.553 88.8902 163 88.8902C171.92 88.8902 179.703 93.7561 183.84 100.978C184.05 100.921 184.272 100.89 184.5 100.89H192.5C193.881 100.89 195 102.009 195 103.39C195 104.771 193.881 105.89 192.5 105.89H185.963C186.637 108.105 187 110.455 187 112.89C187 126.145 176.255 136.89 163 136.89C149.745 136.89 139 126.145 139 112.89C139 111.468 139.124 110.075 139.361 108.721C139.276 104.345 135.914 100.89 131.862 100.89C128.126 100.89 124.975 103.83 124.442 107.72C124.807 109.385 125 111.115 125 112.89C125 126.145 114.255 136.89 101 136.89ZM101 132.89C112.046 132.89 121 123.936 121 112.89C121 101.845 112.046 92.8902 101 92.8902C89.9543 92.8902 81 101.845 81 112.89C81 123.936 89.9543 132.89 101 132.89ZM183 112.89C183 123.936 174.046 132.89 163 132.89C151.954 132.89 143 123.936 143 112.89C143 101.845 151.954 92.8902 163 92.8902C174.046 92.8902 183 101.845 183 112.89Z" fill="#252C2F"/>
</g>
</g>
<defs>
<filter id="filter0_d" x="69" y="88.8902" width="126" height="50" filterUnits="userSpaceOnUse" color-interpolation-filters="sRGB">
<feFlood flood-opacity="0" result="BackgroundImageFix"/>
<feColorMatrix in="SourceAlpha" type="matrix" values="0 0 0 0 0 0 0 0 0 0 0 0 0 0 0 0 0 0 127 0"/>
<feOffset dy="2"/>
<feColorMatrix type="matrix" values="0 0 0 0 0 0 0 0 0 0 0 0 0 0 0 0 0 0 0.1 0"/>
<feBlend mode="normal" in2="BackgroundImageFix" result="effect1_dropShadow"/>
<feBlend mode="normal" in="SourceGraphic" in2="effect1_dropShadow" result="shape"/>
</filter>
</defs>
</svg>
