<svg width="264" height="281" viewBox="0 0 264 281" fill="none" xmlns="http://www.w3.org/2000/svg">
<path fill-rule="evenodd" clip-rule="evenodd" d="M132 36.8901C101.072 36.8901 76 61.9622 76 92.8901V99.0561C70.3246 100.008 66 104.944 66 110.89V124.89C66 130.942 70.4803 135.948 76.3051 136.771C78.3722 156.577 90.7626 173.312 108 181.501V199.89H104C64.2355 199.89 32 232.126 32 271.89V280.89H232V271.89C232 232.126 199.764 199.89 160 199.89H156V181.501C173.237 173.312 185.628 156.577 187.695 136.771C193.52 135.948 198 130.942 198 124.89V110.89C198 104.944 193.675 100.008 188 99.0561V92.8901C188 61.9622 162.928 36.8901 132 36.8901Z" fill="#D0C6AC"/>
<mask id="mask0" mask-type="alpha" maskUnits="userSpaceOnUse" x="32" y="36" width="200" height="245">
<path fill-rule="evenodd" clip-rule="evenodd" d="M132 36.8901C101.072 36.8901 76 61.9622 76 92.8901V99.0561C70.3246 100.008 66 104.944 66 110.89V124.89C66 130.942 70.4803 135.948 76.3051 136.771C78.3722 156.577 90.7626 173.312 108 181.501V199.89H104C64.2355 199.89 32 232.126 32 271.89V280.89H232V271.89C232 232.126 199.764 199.89 160 199.89H156V181.501C173.237 173.312 185.628 156.577 187.695 136.771C193.52 135.948 198 130.942 198 124.89V110.89C198 104.944 193.675 100.008 188 99.0561V92.8901C188 61.9622 162.928 36.8901 132 36.8901Z" fill="white"/>
</mask>
<g mask="url(#mask0)">
<rect y="36.8901" width="264" height="244" fill="#D08B5B"/>
<path fill-rule="evenodd" clip-rule="evenodd" d="M76 130.89V138.89C76 169.818 101.072 194.89 132 194.89C162.928 194.89 188 169.818 188 138.89V130.89C188 161.818 162.928 186.89 132 186.89C101.072 186.89 76 161.818 76 130.89Z" fill="black" fill-opacity="0.1"/>
</g>
<path fill-rule="evenodd" clip-rule="evenodd" d="M92.6808 200.827C58.2939 206.257 32 236.029 32 271.942V280.89H232V271.942C232 236.029 205.706 206.257 171.319 200.827C170.421 205.883 167.898 210.701 163.764 214.429L134.679 240.658C133.157 242.03 130.843 242.03 129.321 240.658L100.236 214.429C96.1016 210.701 93.5787 205.883 92.6808 200.827Z" fill="#E6E6E6"/>
<mask id="mask1" mask-type="alpha" maskUnits="userSpaceOnUse" x="32" y="200" width="200" height="81">
<path fill-rule="evenodd" clip-rule="evenodd" d="M92.6808 200.827C58.2939 206.257 32 236.029 32 271.942V280.89H232V271.942C232 236.029 205.706 206.257 171.319 200.827C170.421 205.883 167.898 210.701 163.764 214.429L134.679 240.658C133.157 242.03 130.843 242.03 129.321 240.658L100.236 214.429C96.1016 210.701 93.5787 205.883 92.6808 200.827Z" fill="white"/>
</mask>
<g mask="url(#mask1)">
<rect y="170.89" width="264" height="110" fill="#262E33"/>
</g>
<path fill-rule="evenodd" clip-rule="evenodd" d="M118 149.89C118 157.622 124.268 163.89 132 163.89V163.89C139.732 163.89 146 157.622 146 149.89" fill="black" fill-opacity="0.7"/>
<path fill-rule="evenodd" clip-rule="evenodd" d="M120 130.89C120 135.308 125.373 138.89 132 138.89V138.89C138.627 138.89 144 135.308 144 130.89" fill="black" fill-opacity="0.16"/>
<circle cx="106" cy="112.89" r="6" fill="black" fill-opacity="0.6"/>
<circle cx="158" cy="112.89" r="6" fill="black" fill-opacity="0.6"/>
<path d="M91.6303 100.049C95.5452 94.54 106.278 91.451 115.523 93.7213C116.596 93.9848 117.679 93.3287 117.942 92.256C118.206 91.1833 117.55 90.1002 116.477 89.8367C105.74 87.2001 93.3121 90.7771 88.3698 97.7316C87.7299 98.6319 87.9411 99.8805 88.8414 100.52C89.7418 101.16 90.9904 100.949 91.6303 100.049Z" fill="black" fill-opacity="0.6"/>
<path d="M172.37 100.049C168.455 94.54 157.722 91.451 148.477 93.7213C147.405 93.9848 146.321 93.3287 146.058 92.256C145.795 91.1833 146.451 90.1002 147.523 89.8367C158.26 87.2001 170.688 90.7771 175.631 97.7316C176.27 98.6319 176.059 99.8805 175.159 100.52C174.259 101.16 173.01 100.949 172.37 100.049Z" fill="black" fill-opacity="0.6"/>
<mask id="mask2" mask-type="alpha" maskUnits="userSpaceOnUse" x="0" y="0" width="264" height="281">
<rect y="0.890137" width="264" height="280" fill="white"/>
</mask>
<g mask="url(#mask2)">
<path fill-rule="evenodd" clip-rule="evenodd" d="M149.221 171.059C146.737 173.353 144.092 174.384 140.748 173.663C140.172 173.539 137.826 169.125 132 169.125C126.174 169.125 123.828 173.539 123.252 173.663C119.908 174.384 117.262 173.353 114.779 171.059C110.11 166.746 106.227 160.798 108.56 154.309C109.776 150.927 111.754 147.214 115.351 146.136C119.193 144.986 124.586 146.134 128.457 145.348C129.712 145.094 131.082 144.641 132 143.89C132.918 144.641 134.288 145.094 135.542 145.348C139.413 146.134 144.807 144.986 148.648 146.136C152.246 147.214 154.224 150.927 155.44 154.309C157.773 160.798 153.89 166.746 149.221 171.059M187.413 98.8901C184.044 107.29 185.345 117.748 184.721 126.566C184.215 133.733 182.726 144.476 176.437 149.105C173.222 151.472 167.368 155.45 163.166 154.34C160.274 153.577 159.965 145.18 156.164 142.037C151.853 138.472 146.469 136.906 141.04 137.148C138.698 137.252 133.961 137.228 132 139.051C130.039 137.228 125.302 137.252 122.96 137.148C117.531 136.906 112.147 138.472 107.836 142.037C104.035 145.18 103.726 153.577 100.834 154.34C96.6319 155.45 90.7785 151.472 87.5624 149.105C81.2736 144.476 79.7852 133.733 79.2781 126.566C78.6548 117.748 79.9562 107.29 76.5865 98.8901C74.9471 98.8901 76.0284 115.019 76.0284 115.019V135.375C76.0596 150.663 85.4954 173.546 106.416 182.283C111.533 184.42 123.122 187.89 132 187.89C140.878 187.89 152.467 184.75 157.584 182.614C178.504 173.876 187.94 150.663 187.972 135.375V115.019C187.972 115.019 189.053 98.8901 187.413 98.8901" fill="#331B0C"/>
<mask id="mask3" mask-type="alpha" maskUnits="userSpaceOnUse" x="75" y="98" width="114" height="90">
<path fill-rule="evenodd" clip-rule="evenodd" d="M149.221 171.059C146.737 173.353 144.092 174.384 140.748 173.663C140.172 173.539 137.826 169.125 132 169.125C126.174 169.125 123.828 173.539 123.252 173.663C119.908 174.384 117.262 173.353 114.779 171.059C110.11 166.746 106.227 160.798 108.56 154.309C109.776 150.927 111.754 147.214 115.351 146.136C119.193 144.986 124.586 146.134 128.457 145.348C129.712 145.094 131.082 144.641 132 143.89C132.918 144.641 134.288 145.094 135.542 145.348C139.413 146.134 144.807 144.986 148.648 146.136C152.246 147.214 154.224 150.927 155.44 154.309C157.773 160.798 153.89 166.746 149.221 171.059M187.413 98.8901C184.044 107.29 185.345 117.748 184.721 126.566C184.215 133.733 182.726 144.476 176.437 149.105C173.222 151.472 167.368 155.45 163.166 154.34C160.274 153.577 159.965 145.18 156.164 142.037C151.853 138.472 146.469 136.906 141.04 137.148C138.698 137.252 133.961 137.228 132 139.051C130.039 137.228 125.302 137.252 122.96 137.148C117.531 136.906 112.147 138.472 107.836 142.037C104.035 145.18 103.726 153.577 100.834 154.34C96.6319 155.45 90.7785 151.472 87.5624 149.105C81.2736 144.476 79.7852 133.733 79.2781 126.566C78.6548 117.748 79.9562 107.29 76.5865 98.8901C74.9471 98.8901 76.0284 115.019 76.0284 115.019V135.375C76.0596 150.663 85.4954 173.546 106.416 182.283C111.533 184.42 123.122 187.89 132 187.89C140.878 187.89 152.467 184.75 157.584 182.614C178.504 173.876 187.94 150.663 187.972 135.375V115.019C187.972 115.019 189.053 98.8901 187.413 98.8901" fill="white"/>
</mask>
<g mask="url(#mask3)">
<rect x="49" y="72.8901" width="166" height="152" fill="#724133"/>
</g>
<path fill-rule="evenodd" clip-rule="evenodd" d="M159.395 40.6712C156.318 37.5829 153.119 44.5288 151.623 46.3182C148.013 50.6388 144.54 55.0731 140.868 59.342C133.616 67.7725 126.439 76.2645 119.234 84.7303C118.14 86.0158 118.273 86.155 116.837 86.2787C115.886 86.361 114.563 85.8704 113.574 85.8158C110.824 85.6647 108.112 86.125 105.436 86.7128C100.091 87.8863 94.4265 89.8193 89.7891 92.7884C88.5718 93.5674 87.7875 94.4873 86.4671 94.7313C85.3184 94.9436 83.7944 94.5197 82.6223 94.4096C80.5413 94.2139 77.5379 93.3628 75.4954 93.8039C72.9028 94.364 71.9174 97.5011 74.5605 98.8905C76.5703 99.9466 80.5706 99.3663 82.8236 99.5349C85.3971 99.7274 84.6121 99.5944 84.2474 102.054C83.7239 105.588 84.5986 109.537 86.0886 112.768C89.5483 120.273 99.1229 128.225 107.855 127.493C115.142 126.883 121.527 120.303 124.519 113.99C126.051 110.759 126.955 107.082 127.25 103.519C127.439 101.252 127.334 98.8482 126.684 96.6534C126.363 95.5685 125.854 94.4456 125.308 93.4597C124.866 92.6611 122.909 90.8105 122.789 90.0067C122.556 88.4504 126.973 84.2776 127.816 83.2345C131.789 78.3178 135.78 73.4222 139.722 68.4791C143.603 63.6103 147.506 58.7541 151.49 53.9687C153.294 51.8 162.318 43.605 159.395 40.6712" fill="#28354B"/>
</g>
</svg>
