<svg width="264" height="281" viewBox="0 0 264 281" fill="none" xmlns="http://www.w3.org/2000/svg">
<path fill-rule="evenodd" clip-rule="evenodd" d="M132 36.7804C101.072 36.7804 76 61.8525 76 92.7804V98.9463C70.3246 99.8985 66 104.834 66 110.78V124.78C66 130.833 70.4803 135.838 76.3051 136.662C78.3722 156.467 90.7626 173.203 108 181.391V199.78H104C64.2355 199.78 32 232.016 32 271.78V280.78H232V271.78C232 232.016 199.764 199.78 160 199.78H156V181.391C173.237 173.203 185.628 156.467 187.695 136.662C193.52 135.838 198 130.833 198 124.78V110.78C198 104.834 193.675 99.8985 188 98.9463V92.7804C188 61.8525 162.928 36.7804 132 36.7804Z" fill="#D0C6AC"/>
<mask id="mask0" mask-type="alpha" maskUnits="userSpaceOnUse" x="32" y="36" width="200" height="245">
<path fill-rule="evenodd" clip-rule="evenodd" d="M132 36.7804C101.072 36.7804 76 61.8525 76 92.7804V98.9463C70.3246 99.8985 66 104.834 66 110.78V124.78C66 130.833 70.4803 135.838 76.3051 136.662C78.3722 156.467 90.7626 173.203 108 181.391V199.78H104C64.2355 199.78 32 232.016 32 271.78V280.78H232V271.78C232 232.016 199.764 199.78 160 199.78H156V181.391C173.237 173.203 185.628 156.467 187.695 136.662C193.52 135.838 198 130.833 198 124.78V110.78C198 104.834 193.675 99.8985 188 98.9463V92.7804C188 61.8525 162.928 36.7804 132 36.7804Z" fill="white"/>
</mask>
<g mask="url(#mask0)">
<rect y="36.7804" width="264" height="244" fill="#EDB98A"/>
<path fill-rule="evenodd" clip-rule="evenodd" d="M76 130.78V138.78C76 169.708 101.072 194.78 132 194.78C162.928 194.78 188 169.708 188 138.78V130.78C188 161.708 162.928 186.78 132 186.78C101.072 186.78 76 161.708 76 130.78Z" fill="black" fill-opacity="0.1"/>
</g>
<path fill-rule="evenodd" clip-rule="evenodd" d="M132.5 224.78C151.002 224.78 166 215.155 166 203.28C166 202.182 165.872 201.103 165.624 200.049C202.76 202.918 232 233.96 232 271.832V280.78H32V271.832C32 233.615 61.7752 202.353 99.3929 199.977C99.1342 201.054 99 202.157 99 203.28C99 215.155 113.998 224.78 132.5 224.78Z" fill="#E6E6E6"/>
<mask id="mask1" mask-type="alpha" maskUnits="userSpaceOnUse" x="32" y="199" width="200" height="82">
<path fill-rule="evenodd" clip-rule="evenodd" d="M132.5 224.78C151.002 224.78 166 215.155 166 203.28C166 202.182 165.872 201.103 165.624 200.049C202.76 202.918 232 233.96 232 271.832V280.78H32V271.832C32 233.615 61.7752 202.353 99.3929 199.977C99.1342 201.054 99 202.157 99 203.28C99 215.155 113.998 224.78 132.5 224.78Z" fill="white"/>
</mask>
<g mask="url(#mask1)">
<rect y="170.78" width="264" height="110" fill="#262E33"/>
<rect width="110" height="44" transform="translate(77 228.78)" fill="#E6E6E6"/>
<path fill-rule="evenodd" clip-rule="evenodd" d="M159.303 236.348C159.147 237.279 157.381 241.437 156.074 239.299C155.565 238.466 156.476 235.838 156.759 235.09C157.317 233.617 157.733 233.452 159.022 232.759C159.131 233.948 159.433 235.157 159.303 236.348M156.319 239.667C156.349 239.679 156.477 239.799 156.319 239.667ZM156.311 239.661C156.305 239.656 156.311 239.661 156.311 239.661ZM149.03 234.985C149.04 234.994 149.083 235.027 149.03 234.985ZM136.555 239.941C136.348 241.161 136.08 242.38 135.651 243.541C135.482 241.81 135.754 240.085 136.651 238.591C136.641 239.042 136.609 239.493 136.555 239.941M136.545 237.439C136.541 237.424 136.386 237.199 136.545 237.439ZM119.908 247.584C120.061 246.051 120.676 244.567 121.814 243.54C121.537 245.164 120.742 246.21 119.908 247.584M169.837 234.077C169.837 234.715 167.779 236.412 167.264 236.881C166.385 237.679 165.449 238.32 164.187 238.134C160.725 237.625 162.097 233.928 161.546 231.653C161.112 229.865 160.667 230.539 159.464 230.427C158.346 230.323 157.946 229.771 156.782 230.614C154.686 232.132 153.016 234.11 152.123 236.594C151.799 234.899 150.878 232.09 148.671 232.5C147.039 232.803 145.687 235.426 145.008 236.743C144.956 235.546 144.34 233.668 142.833 234.525C141.797 235.114 141.842 237.907 141.615 238.935C141.15 241.047 140.236 246.553 136.971 245.837C138 243.918 140.251 237.867 138.321 235.9C135.609 233.138 133.546 240.055 133.435 241.739C133.356 242.945 134.241 245.683 133.764 246.432C133.179 247.349 131.336 247.745 130.461 247.073C129.056 245.995 129.61 244.243 129.931 242.874C130.353 241.079 130.551 239.276 130.665 237.437C130.75 236.057 131.951 229.888 129.637 229.805C127.542 229.729 127.328 234.943 127.179 236.367C126.994 238.119 126.883 239.893 126.944 241.655C127.006 243.438 127.338 244.625 126.647 246.299C125.907 248.091 122.383 253.469 120.274 249.899C122.514 248.916 125.185 244.38 123.983 241.831C122.317 238.297 118.568 243.682 118.025 245.488C117.147 248.403 117.533 252.21 120.888 253.159C124.381 254.147 127.078 250.872 128.309 247.978C129.311 249.566 131.154 249.965 132.858 249.484C133.535 249.292 134.186 248.963 134.75 248.536C135.82 247.726 135.194 248.028 136.329 247.995C139.626 247.9 141.425 246.842 142.661 243.45C142.646 244.384 143.004 245.809 144.259 245.298C145.234 244.901 145.227 243.289 145.408 242.429C145.977 239.716 146.873 236.887 149.006 235.006C150.847 237.009 149.486 240.434 150.697 242.567C152.564 245.854 153.504 240.034 153.796 238.912C153.853 243.795 159.658 241.996 160.914 238.756C164.213 242.271 171.148 239.104 169.837 234.077" fill="white"/>
<path fill-rule="evenodd" clip-rule="evenodd" d="M163.434 244.129C159.804 244.129 155.829 245.155 152.307 245.947C148.76 246.744 145.231 247.732 141.805 248.917C137.934 250.255 133.993 251.47 130.215 253.038C126.939 254.399 122.707 255.391 120.703 258.454C120.699 258.463 122.805 258.366 122.975 258.338C124.024 258.164 124.927 257.794 125.892 257.382C127.639 256.635 129.374 255.863 131.116 255.105C135.02 253.407 139.095 252.01 143.104 250.551C147.1 249.098 151.199 247.866 155.359 246.926C158.75 246.16 162.541 246.013 165.662 244.653C165.544 244.698 165.621 244.668 165.892 244.562C165.813 244.6 163.671 244.129 163.434 244.129" fill="white"/>
<path fill-rule="evenodd" clip-rule="evenodd" d="M116.117 249.605C113.848 248.607 110.64 249.048 108.282 249.367C106.139 249.657 102.786 250.301 101.449 250.474C100.343 250.615 97.0432 251.515 96.4394 250.277C95.79 248.946 99.1588 244.874 99.8951 243.915C103.21 239.594 107.195 234.794 111.975 231.992C111.535 233.942 111.15 235.909 110.748 237.868C110.582 238.675 109.799 243.032 111.234 243.375C111.823 243.516 113.006 240.593 113.104 240.331C113.927 238.142 114.116 235.622 114.495 233.33C114.712 232.018 115.695 229.28 113.801 228.828C112.172 228.439 109.965 230.555 108.878 231.446C105.596 234.138 102.751 237.393 100.091 240.667C98.7803 242.279 97.4761 243.9 96.3769 245.664C95.473 247.114 93.2874 250.154 94.2321 251.946C95.9297 255.166 104.072 252.343 106.664 251.914C108.709 251.575 110.816 251.253 112.891 251.537C115.053 251.832 114.948 252.808 114.23 254.733C112.752 258.693 109.454 262.094 106.506 265.053C105.207 266.356 100.125 272.472 98.8455 269.145C97.976 266.883 98.7453 264.109 99.7456 262.031C100.214 261.057 100.835 260.169 101.323 259.206C101.456 258.944 102.125 256.782 102.27 256.733C98.4004 258.084 96.1533 263.319 95.9375 267.02C95.8359 268.761 96.0738 271.344 97.7374 272.389C99.4017 273.434 100.964 272.162 102.287 271.203C105.929 268.564 109.178 265.205 112.152 261.868C113.778 260.044 120.605 251.582 116.117 249.605" fill="white"/>
</g>
<rect width="108" height="44" transform="translate(78 134.78)" fill="#D08B5B"/>
<path fill-rule="evenodd" clip-rule="evenodd" d="M113.118 149.908C114.176 159.4 122.226 166.78 132 166.78C141.804 166.78 149.874 159.355 150.892 149.82C150.974 149.053 150.117 147.78 149.043 147.78C134.149 147.78 122.738 147.78 115.087 147.78C114.007 147.78 113.012 148.959 113.118 149.908Z" fill="black" fill-opacity="0.7"/>
<mask id="mask2" mask-type="alpha" maskUnits="userSpaceOnUse" x="113" y="147" width="38" height="20">
<path fill-rule="evenodd" clip-rule="evenodd" d="M113.118 149.908C114.176 159.4 122.226 166.78 132 166.78C141.804 166.78 149.874 159.355 150.892 149.82C150.974 149.053 150.117 147.78 149.043 147.78C134.149 147.78 122.738 147.78 115.087 147.78C114.007 147.78 113.012 148.959 113.118 149.908Z" fill="white"/>
</mask>
<g mask="url(#mask2)">
<rect x="117" y="136.78" width="31" height="16" rx="5" fill="white"/>
<circle cx="127" cy="169.78" r="11" fill="#FF4F6D"/>
<circle cx="137" cy="169.78" r="11" fill="#FF4F6D"/>
</g>
<path fill-rule="evenodd" clip-rule="evenodd" d="M120 130.78C120 135.199 125.373 138.78 132 138.78V138.78C138.627 138.78 144 135.199 144 130.78" fill="black" fill-opacity="0.16"/>
<circle cx="106" cy="112.78" r="6" fill="black" fill-opacity="0.6"/>
<circle cx="158" cy="112.78" r="6" fill="black" fill-opacity="0.6"/>
<path d="M91.6302 99.939C95.5451 94.4303 106.278 91.3412 115.523 93.6116C116.596 93.875 117.679 93.219 117.942 92.1463C118.206 91.0736 117.55 89.9904 116.477 89.727C105.74 87.0904 93.3121 90.6674 88.3697 97.6218C87.7299 98.5222 87.941 99.7708 88.8414 100.411C89.7418 101.051 90.9904 100.839 91.6302 99.939Z" fill="black" fill-opacity="0.6"/>
<path d="M172.37 99.939C168.455 94.4303 157.722 91.3412 148.477 93.6116C147.405 93.875 146.321 93.219 146.058 92.1463C145.795 91.0736 146.451 89.9904 147.523 89.727C158.26 87.0904 170.688 90.6674 175.631 97.6218C176.27 98.5222 176.059 99.7708 175.159 100.411C174.258 101.051 173.01 100.839 172.37 99.939Z" fill="black" fill-opacity="0.6"/>
<mask id="mask3" mask-type="alpha" maskUnits="userSpaceOnUse" x="0" y="0" width="264" height="281">
<rect y="0.780396" width="264" height="280" fill="white"/>
</mask>
<g mask="url(#mask3)">
<path fill-rule="evenodd" clip-rule="evenodd" d="M113.18 150.518C115.363 148.885 128.407 148.259 130.758 146.87C131.492 146.436 132.061 145.996 132.5 145.56C132.939 145.996 133.509 146.436 134.242 146.87C136.593 148.259 149.637 148.885 151.82 150.518C154.03 152.171 155.644 155.965 155.467 158.931C155.255 162.491 151.361 170.983 141.672 171.961C139.558 169.609 136.237 168.091 132.5 168.091C128.763 168.091 125.442 169.609 123.328 171.961C113.639 170.983 109.745 162.491 109.533 158.931C109.357 155.965 110.97 152.171 113.18 150.518M151.142 167.687C151.143 167.686 151.145 167.685 151.146 167.685C151.144 167.685 151.143 167.686 151.142 167.687M113.845 167.682C113.849 167.683 113.857 167.686 113.862 167.688C113.857 167.686 113.851 167.684 113.845 167.682M192.863 128.766C192.474 122.811 191.278 116.932 190.234 111.067C189.953 109.488 188.424 98.7804 187.735 98.7804C187.502 107.89 186.702 116.861 185.67 125.92C185.361 128.628 185.038 131.337 184.825 134.055C184.654 136.25 184.96 138.902 184.428 141.026C183.749 143.733 180.348 146.259 177.703 147.191C171.103 149.518 165.598 139.888 159.961 137.072C152.643 133.415 140.064 132.544 132.582 137.31C124.936 132.544 112.357 133.415 105.039 137.072C99.4024 139.888 93.897 149.518 87.2972 147.191C84.6521 146.259 81.2504 143.733 80.5724 141.026C80.0403 138.902 80.3463 136.25 80.175 134.055C79.9624 131.337 79.6389 128.628 79.3302 125.92C78.2983 116.861 77.4975 107.89 77.2654 98.7804C76.5762 98.7804 75.0468 109.488 74.7659 111.067C73.7221 116.932 72.5258 122.811 72.1376 128.766C71.7385 134.885 72.2149 140.948 73.4696 146.944C74.0687 149.808 74.7685 152.656 75.5189 155.485C76.3527 158.627 75.199 164.747 75.5723 167.973C76.2788 174.076 79.1543 185.98 82.3833 191.231C83.9441 193.769 85.7735 195.354 87.8165 197.4C89.7826 199.368 90.6039 202.42 92.7261 204.517C96.682 208.425 102.446 210.752 108.366 211.324C113.677 215.831 122.506 218.78 132.5 218.78C142.495 218.78 151.323 215.831 156.635 211.324C162.554 210.752 168.318 208.425 172.274 204.517C174.396 202.42 175.217 199.368 177.184 197.4C179.226 195.354 181.056 193.769 182.617 191.231C185.846 185.98 188.721 174.076 189.428 167.973C189.801 164.747 188.647 158.627 189.481 155.485C190.232 152.656 190.931 149.808 191.531 146.944C192.785 140.948 193.261 134.885 192.863 128.766Z" fill="#5E7AA9"/>
<mask id="mask4" mask-type="alpha" maskUnits="userSpaceOnUse" x="72" y="98" width="121" height="121">
<path fill-rule="evenodd" clip-rule="evenodd" d="M113.18 150.518C115.363 148.885 128.407 148.259 130.758 146.87C131.492 146.436 132.061 145.996 132.5 145.56C132.939 145.996 133.509 146.436 134.242 146.87C136.593 148.259 149.637 148.885 151.82 150.518C154.03 152.171 155.644 155.965 155.467 158.931C155.255 162.491 151.361 170.983 141.672 171.961C139.558 169.609 136.237 168.091 132.5 168.091C128.763 168.091 125.442 169.609 123.328 171.961C113.639 170.983 109.745 162.491 109.533 158.931C109.357 155.965 110.97 152.171 113.18 150.518M151.142 167.687C151.143 167.686 151.145 167.685 151.146 167.685C151.144 167.685 151.143 167.686 151.142 167.687M113.845 167.682C113.849 167.683 113.857 167.686 113.862 167.688C113.857 167.686 113.851 167.684 113.845 167.682M192.863 128.766C192.474 122.811 191.278 116.932 190.234 111.067C189.953 109.488 188.424 98.7804 187.735 98.7804C187.502 107.89 186.702 116.861 185.67 125.92C185.361 128.628 185.038 131.337 184.825 134.055C184.654 136.25 184.96 138.902 184.428 141.026C183.749 143.733 180.348 146.259 177.703 147.191C171.103 149.518 165.598 139.888 159.961 137.072C152.643 133.415 140.064 132.544 132.582 137.31C124.936 132.544 112.357 133.415 105.039 137.072C99.4024 139.888 93.897 149.518 87.2972 147.191C84.6521 146.259 81.2504 143.733 80.5724 141.026C80.0403 138.902 80.3463 136.25 80.175 134.055C79.9624 131.337 79.6389 128.628 79.3302 125.92C78.2983 116.861 77.4975 107.89 77.2654 98.7804C76.5762 98.7804 75.0468 109.488 74.7659 111.067C73.7221 116.932 72.5258 122.811 72.1376 128.766C71.7385 134.885 72.2149 140.948 73.4696 146.944C74.0687 149.808 74.7685 152.656 75.5189 155.485C76.3527 158.627 75.199 164.747 75.5723 167.973C76.2788 174.076 79.1543 185.98 82.3833 191.231C83.9441 193.769 85.7735 195.354 87.8165 197.4C89.7826 199.368 90.6039 202.42 92.7261 204.517C96.682 208.425 102.446 210.752 108.366 211.324C113.677 215.831 122.506 218.78 132.5 218.78C142.495 218.78 151.323 215.831 156.635 211.324C162.554 210.752 168.318 208.425 172.274 204.517C174.396 202.42 175.217 199.368 177.184 197.4C179.226 195.354 181.056 193.769 182.617 191.231C185.846 185.98 188.721 174.076 189.428 167.973C189.801 164.747 188.647 158.627 189.481 155.485C190.232 152.656 190.931 149.808 191.531 146.944C192.785 140.948 193.261 134.885 192.863 128.766Z" fill="white"/>
</mask>
<g mask="url(#mask4)">
<rect x="48" y="72.7804" width="168" height="152" fill="#724133"/>
</g>
<g filter="url(#filter0_d)">
<path fill-rule="evenodd" clip-rule="evenodd" d="M98.2421 134.78H101C115.721 134.78 126 126.349 126 114.28C126 103.907 124.183 93.7804 102.47 93.7804H99.5299C77.817 93.7804 76 103.907 76 114.28C76 127.116 84.3147 134.78 98.2421 134.78ZM80 115.282C80 106.621 80 99.7804 99.3854 99.7804H102.615C122 99.7804 122 106.621 122 115.282C122 124.407 113.365 130.78 101 130.78H97.9709C83.1163 130.78 80 122.352 80 115.282Z" fill="#252C2F"/>
<path fill-rule="evenodd" clip-rule="evenodd" d="M160.242 134.78H163C177.721 134.78 188 126.349 188 114.28C188 103.907 186.183 93.7804 164.47 93.7804H161.53C139.817 93.7804 138 103.907 138 114.28C138 127.116 146.315 134.78 160.242 134.78ZM142 115.282C142 106.621 142 99.7804 161.385 99.7804H164.615C184 99.7804 184 106.621 184 115.282C184 124.407 175.365 130.78 163 130.78H159.971C145.119 130.78 142 122.352 142 115.282Z" fill="#252C2F"/>
<path d="M69.9545 99.552C70.6459 98.8767 78.2095 93.7804 99.5 93.7804C117.351 93.7804 121.13 95.6331 126.85 98.4323L127.269 98.6389C127.667 98.7794 129.7 99.4702 132.079 99.5462C134.246 99.4532 136.1 98.8658 136.642 98.6776C143.17 95.5025 149.561 93.7804 164.5 93.7804C185.79 93.7804 193.354 98.8767 194.045 99.552C195.679 99.552 197 100.842 197 102.438V105.324C197 106.919 195.679 108.209 194.045 108.209C194.045 108.209 187.144 108.209 187.144 111.095C187.144 113.981 185.182 106.919 185.182 105.324V102.513C181.579 101.134 175.128 98.5666 164.5 98.5666C152.658 98.5666 146.761 100.666 141.702 102.752L141.759 102.888L141.756 104.874L139.539 110.224L136.8 109.141C136.556 109.045 136.028 108.871 135.296 108.69C133.256 108.187 131.159 108.034 129.304 108.415C128.624 108.554 127.992 108.764 127.413 109.047L124.77 110.338L122.127 105.177L122.244 102.882L122.325 102.687C117.962 100.654 113.939 98.5666 99.5 98.5666C88.8721 98.5666 82.4221 101.133 78.8182 102.512V105.324C78.8182 106.919 75.8636 113.981 75.8636 111.095C75.8636 108.209 69.9545 108.209 69.9545 108.209C68.3236 108.209 67 106.919 67 105.324V102.438C67 100.842 68.3236 99.552 69.9545 99.552Z" fill="#252C2F"/>
</g>
<path fill-rule="evenodd" clip-rule="evenodd" d="M87.1834 38.6366C92.3241 34.8048 98.402 31.52 104.742 30.2587C111.189 28.9764 115.101 28.665 121.447 30.1857C123.08 30.5769 123.631 30.9659 125.068 30.0372C126.279 29.2547 134.73 20.5473 160.489 25.3803C186.523 30.2651 194.258 69.4558 203.915 70.9467C207.395 71.4838 211.697 70.562 211.831 68.4193C215.795 74.453 216.839 82.4264 215.159 89.4933C213.712 95.5793 210.662 101.298 205.17 104.63C200.444 107.497 193.91 108.746 188.449 108.218C185.963 107.977 183.703 107.454 181.417 106.452C178.658 105.242 176.46 103.061 173.753 101.908C176.579 104.356 179.655 106.516 182.929 108.327C184.568 109.233 186.232 109.858 188.042 110.35C189.277 110.686 191.803 111.831 192.998 111.532C185.19 112.929 177.837 111.712 170.678 108.37C167.447 106.862 164.34 105.037 161.487 102.893C158.654 100.763 155.393 98.5866 153.176 95.784C154.107 96.9875 152.479 95.1973 152.264 94.9784C151.656 94.3586 151.061 93.7263 150.477 93.0833C149.475 91.9797 148.48 90.8556 147.547 89.6924C145.553 87.2067 143.695 84.6102 142.039 81.889C140.362 79.1331 133.681 68.0161 131.664 65.3994C133.569 71.1074 135.644 76.8177 138.071 82.3249C133.358 80.8548 128.788 76.7806 125.776 72.9839C122.384 68.708 120.376 63.7164 119.668 58.3183C115.843 68.7341 106.883 76.948 97.6359 82.6133C99.6394 78.883 102.692 75.7283 104.688 71.9352C95.4973 81.2643 80.1204 85.8286 76.093 99.5093C75.0607 94.7518 71.7405 90.9287 70.7458 86.076C69.6415 80.6875 68.849 74.9673 69.0244 69.4601C69.4218 57.2183 77.6565 45.7379 87.1834 38.6366Z" fill="#28354B"/>
<mask id="mask5" mask-type="alpha" maskUnits="userSpaceOnUse" x="69" y="23" width="147" height="90">
<path fill-rule="evenodd" clip-rule="evenodd" d="M87.1834 38.6366C92.3241 34.8048 98.402 31.52 104.742 30.2587C111.189 28.9764 115.101 28.665 121.447 30.1857C123.08 30.5769 123.631 30.9659 125.068 30.0372C126.279 29.2547 134.73 20.5473 160.489 25.3803C186.523 30.2651 194.258 69.4558 203.915 70.9467C207.395 71.4838 211.697 70.562 211.831 68.4193C215.795 74.453 216.839 82.4264 215.159 89.4933C213.712 95.5793 210.662 101.298 205.17 104.63C200.444 107.497 193.91 108.746 188.449 108.218C185.963 107.977 183.703 107.454 181.417 106.452C178.658 105.242 176.46 103.061 173.753 101.908C176.579 104.356 179.655 106.516 182.929 108.327C184.568 109.233 186.232 109.858 188.042 110.35C189.277 110.686 191.803 111.831 192.998 111.532C185.19 112.929 177.837 111.712 170.678 108.37C167.447 106.862 164.34 105.037 161.487 102.893C158.654 100.763 155.393 98.5866 153.176 95.784C154.107 96.9875 152.479 95.1973 152.264 94.9784C151.656 94.3586 151.061 93.7263 150.477 93.0833C149.475 91.9797 148.48 90.8556 147.547 89.6924C145.553 87.2067 143.695 84.6102 142.039 81.889C140.362 79.1331 133.681 68.0161 131.664 65.3994C133.569 71.1074 135.644 76.8177 138.071 82.3249C133.358 80.8548 128.788 76.7806 125.776 72.9839C122.384 68.708 120.376 63.7164 119.668 58.3183C115.843 68.7341 106.883 76.948 97.6359 82.6133C99.6394 78.883 102.692 75.7283 104.688 71.9352C95.4973 81.2643 80.1204 85.8286 76.093 99.5093C75.0607 94.7518 71.7405 90.9287 70.7458 86.076C69.6415 80.6875 68.849 74.9673 69.0244 69.4601C69.4218 57.2183 77.6565 45.7379 87.1834 38.6366Z" fill="white"/>
</mask>
<g mask="url(#mask5)">
<rect y="0.780396" width="264" height="280" fill="#4A312C"/>
</g>
</g>
<defs>
<filter id="filter0_d" x="67" y="93.7804" width="130" height="43" filterUnits="userSpaceOnUse" color-interpolation-filters="sRGB">
<feFlood flood-opacity="0" result="BackgroundImageFix"/>
<feColorMatrix in="SourceAlpha" type="matrix" values="0 0 0 0 0 0 0 0 0 0 0 0 0 0 0 0 0 0 127 0"/>
<feOffset dy="2"/>
<feColorMatrix type="matrix" values="0 0 0 0 0 0 0 0 0 0 0 0 0 0 0 0 0 0 0.2 0"/>
<feBlend mode="normal" in2="BackgroundImageFix" result="effect1_dropShadow"/>
<feBlend mode="normal" in="SourceGraphic" in2="effect1_dropShadow" result="shape"/>
</filter>
</defs>
</svg>
